<?xml version="1.0" standalone="no"?>
<!DOCTYPE svg PUBLIC "-//W3C//DTD SVG 20010904//EN"
 "http://www.w3.org/TR/2001/REC-SVG-20010904/DTD/svg10.dtd">
<svg version="1.0" xmlns="http://www.w3.org/2000/svg"
 width="40.000000pt" height="36.000000pt" viewBox="0 0 40.000000 36.000000"
 preserveAspectRatio="xMidYMid meet">
<metadata>
Created by potrace 1.10, written by Peter Selinger 2001-2011
</metadata>
<g transform="translate(0.000000,36.000000) scale(0.100000,-0.100000)"
fill="#000000" stroke="none">
<path d="M149 293 c-80 -49 -79 -179 1 -227 36 -21 104 -21 140 0 81 48 81
180 0 228 -36 20 -107 20 -141 -1z m87 -58 c5 -19 13 -25 35 -25 33 0 38 -15
9 -30 -15 -8 -18 -17 -13 -40 6 -34 -2 -38 -29 -13 -17 15 -19 15 -36 0 -27
-25 -35 -21 -29 13 5 23 2 32 -13 40 -29 15 -24 30 9 30 22 0 30 6 35 25 4 14
11 25 16 25 5 0 12 -11 16 -25z"/>
</g>
</svg>
